# xmcd
#
# Track frame offsets: 
#        150
#        674
#        20470
#        44167
#        63656
#        81648
#        97934
#        116858
#        134724
#        149632
#        171088
#        187679
#        212536
#        228552
#        245912
#        254304
#        264980
#        283681
#        301724
#        318644
#
# Disc length: 4442 seconds
#
# Revision: 0
# Processed by: cddbd v1.5.2PL0 Copyright (c) Steve Scherf et al.
# Submitted via: ExactAudioCopy v0.99pb4
#
DISCID=2e115814
DTITLE=Various Artist - prevue promo 1086A-1
DYEAR=2002
DGENRE=pop
TTITLE0=blank - data
TTITLE1=Celine Dion - A New Day Has Come(Ric Wake Radio Mix)
TTITLE2=Sade - Somebody Already Broke My Heart(Live  Ver - Applause Ta
TTITLE2=g)
TTITLE3=Donell Jones - You Know That I Love You
TTITLE4=Angie Stone - Wish I Didn't Miss You
TTITLE5=Raphael Saadiq feat.  D'Angelo - Be Here
TTITLE6=P. Diddy feat.  Usher and Loon - I Need A Girl (part 1)(Lyric!!)
TTITLE7=Latrelle - House Party
TTITLE8=Sheryl Crow - Soak Up The Sun
TTITLE9=Natalie Merchant - Build A Levee(Album Ver - Inst begins 3:53)
TTITLE10=Great Big Sea - Sea Of No Cares
TTITLE11=Neil Finn - Don't Dream It's Over(Live Album Ver - Long Appla
TTITLE11=use Tag)
TTITLE12=Thirty Odd Feet Of Grunt - Swept Away Bayou (Facing The Headl
TTITLE12=ights Alone)
TTITLE13=Patti Smith - When Doves Cry
TTITLE14=White Stripes, The - Fell In Love With A Girl
TTITLE15=Sugarcult - Bouncing Off The Walls(Mark Trombino Mix)
TTITLE16=Black Label Society - Bleed For Me
TTITLE17=Tantric - Mourning(The Toby Wright Mix)
TTITLE18=Strokes, The - Hard To Explain
TTITLE19=Flying Tigers, The - Maybe
EXTD=
EXTT0=
EXTT1=
EXTT2=
EXTT3=
EXTT4=
EXTT5=
EXTT6=
EXTT7=
EXTT8=
EXTT9=
EXTT10=
EXTT11=
EXTT12=
EXTT13=
EXTT14=
EXTT15=
EXTT16=
EXTT17=
EXTT18=
EXTT19=
PLAYORDER=
